<svg width="432" height="156" viewBox="0 0 432 156" fill="none" xmlns="http://www.w3.org/2000/svg">
<path d="M154.631 59.4518C153.449 58.6161 152.232 57.7655 150.998 56.9C150.911 56.8403 150.824 56.7806 150.72 56.706C150.511 56.5717 150.198 56.6612 150.007 56.8403C149.833 57.0194 149.816 57.2581 149.938 57.4521C149.99 57.5118 150.059 57.5715 150.112 57.6163C151.137 58.631 152.163 59.6458 153.171 60.6157C173.178 80.0748 188.213 90.6251 198.729 90.4759C198.747 90.4759 198.799 90.4759 198.816 90.4759V90.4311C189.343 84.5815 175.681 74.3296 154.631 59.4518Z" fill="#55C3F1"/>
<path d="M221.83 77.7021C221.83 77.7021 221.83 77.7021 221.848 77.7021C221.848 77.7021 221.865 77.7021 221.882 77.7021C220.457 97.012 240.325 122.172 281.155 48.3195C281.451 47.7673 281.729 47.2301 282.007 46.678C282.042 46.6034 282.094 46.5288 282.129 46.4392C282.181 46.2303 282.059 45.9915 281.833 45.8871C281.59 45.7677 281.294 45.8125 281.103 45.9915C281.051 46.0512 281.016 46.1109 280.964 46.1706C280.599 46.678 280.199 47.1854 279.852 47.6927C237.213 106.95 225.863 80.4479 223.012 1.77579C223.012 1.40273 222.977 1.02966 222.977 0.656596C222.977 0.298453 222.63 0 222.213 0C221.795 0 221.483 0.268607 221.448 0.611828C221.448 0.62675 221.448 0.641673 221.448 0.656596C221.448 0.656596 221.448 0.686441 221.448 0.701364C221.448 1.14904 221.448 1.59672 221.448 2.0444C220.805 60.6008 215.173 90.0879 198.834 90.461V90.5058C198.834 90.5058 198.851 90.5058 198.868 90.5207C216.894 101.638 218.614 96.7733 221.83 77.7021Z" fill="#005BAC"/>
<path d="M74.875 155.512V140.996H101.156V151.387C101.156 152.699 100.875 153.668 100.312 154.293C99.7188 154.959 98.7656 155.324 97.4531 155.387C96.3385 155.47 94.7604 155.512 92.7188 155.512C92.6875 155.334 92.6406 155.079 92.5781 154.746C92.401 153.788 92.2552 153.064 92.1406 152.574H81.2656V145.543H94.7344V152.199H95.25C96.0208 152.199 96.5573 152.048 96.8594 151.746C97.151 151.465 97.2969 150.97 97.2969 150.262V144.09H78.7344V155.512H74.875ZM84.9688 150.012H91V148.043H84.9688V150.012ZM77.6875 139.527V132.84H98.3125V139.527H77.6875ZM81.6094 137.058H94.4219V135.402H81.6094V137.058ZM73.5781 131.402V128.23H85.875L85.1875 125.949L89.7969 125.605L90.4375 128.23H102.391V131.402H73.5781ZM120.375 155.824C120.083 155.293 119.698 154.647 119.219 153.887C118.76 153.157 118.391 152.616 118.109 152.262C120.641 150.97 122.714 149.584 124.328 148.105C122.995 146.428 121.911 144.61 121.078 142.652C120.766 145.1 120.234 147.303 119.484 149.262C118.734 151.209 117.609 153.282 116.109 155.48C115.557 154.803 114.667 153.798 113.438 152.465L113.391 152.418C111.307 152.699 108.859 153.157 106.047 153.793L105.391 149.793C107.109 149.564 109.911 149.147 113.797 148.543C114.12 148.491 114.365 148.449 114.531 148.418C114.51 148.959 114.5 149.73 114.5 150.73C115.75 148.616 116.635 146.392 117.156 144.058C117.646 141.829 117.953 138.819 118.078 135.027L118.203 131.121H115.922V127.355H131.484V131.277L128.953 135.652H133.406V139.465C132.344 142.965 131.026 145.824 129.453 148.043C131.047 149.397 132.766 150.595 134.609 151.637C134.224 152.251 133.693 153.147 133.016 154.324C132.755 154.793 132.552 155.147 132.406 155.387C130.396 153.97 128.589 152.512 126.984 151.012C125.151 152.793 122.948 154.397 120.375 155.824ZM107 147.074L105.953 143.558C106.568 143.142 107.318 142.36 108.203 141.215C108.839 140.402 109.521 139.444 110.25 138.34C108.99 138.413 107.703 138.548 106.391 138.746L105.328 135.277C105.932 134.704 106.51 133.881 107.062 132.808C108.271 130.715 109.344 128.407 110.281 125.887L114.203 127.137C112.391 130.47 110.875 133.069 109.656 134.933C110.094 134.933 110.969 134.892 112.281 134.808L113.703 132.121L117.062 133.746C115.135 136.902 113.078 140.017 110.891 143.09L115.438 142.652C115.323 143.86 115.25 145.012 115.219 146.105C111.417 146.428 108.677 146.751 107 147.074ZM126.734 145.23C127.786 143.678 128.714 141.725 129.516 139.371H124.906V135.777L127.594 131.121H121.938C121.938 132.34 121.911 133.746 121.859 135.34C122.443 137.423 123.115 139.251 123.875 140.824C124.677 142.47 125.63 143.939 126.734 145.23ZM138.312 154.574V150.574H150.844V144.949H140.781V140.996H150.844V135.808H144.203C143.464 137.392 142.63 138.944 141.703 140.465L137.969 138.371C140.229 135.069 141.917 131.376 143.031 127.293L147.172 128.012C146.734 129.387 146.302 130.663 145.875 131.84H150.844V125.887H155.109V131.84H165.047V135.808H155.109V140.996H164.031V144.949H155.109V150.574H166.406V154.574H138.312ZM172.891 155.918C171.578 154.949 170.391 154.095 169.328 153.355C170.505 151.741 171.312 150.204 171.75 148.746C172.177 147.329 172.391 145.496 172.391 143.246V138.183H178.5C177.698 137.048 176.812 135.86 175.844 134.621L178.875 132.777H170.5V129.043H182.828C182.703 128.616 182.51 127.991 182.25 127.168C182.125 126.751 182.031 126.439 181.969 126.23L186.656 125.824C186.677 125.918 186.714 126.053 186.766 126.23C187.089 127.449 187.318 128.387 187.453 129.043H198.234V132.777H179.344C180.562 134.256 181.62 135.6 182.516 136.808L180.266 138.183H186.312C187.365 136.527 188.417 134.735 189.469 132.808L193.359 134.527C192.464 135.85 191.599 137.069 190.766 138.183H197.531V141.933H176.469V143.527C176.469 146.09 176.219 148.251 175.719 150.012C175.198 151.834 174.255 153.803 172.891 155.918ZM214.797 155.418C214.589 154.022 214.302 152.532 213.938 150.949C216.062 151.053 217.964 151.105 219.641 151.105C221.099 151.105 222.109 150.881 222.672 150.433C223.193 150.006 223.5 149.23 223.594 148.105C223.823 145.428 223.979 142.996 224.062 140.808H205.016L206.125 125.887H210.5L210.203 129.605H229.797V133.558H209.891L209.641 136.871H228.625C228.448 140.725 228.224 144.657 227.953 148.668C227.839 150.355 227.562 151.657 227.125 152.574C226.667 153.512 225.974 154.194 225.047 154.621C224.161 155.027 222.917 155.262 221.312 155.324C219.115 155.387 216.943 155.418 214.797 155.418ZM201.453 147.949V143.965H221.984V147.949H201.453ZM247.078 155.762V149.262H242.078V145.605H247.078V141.777H243.25V138.183H247.078V134.433H242.969V130.808H247.078V125.918H250.812V155.762H247.078ZM253.312 155.762V125.918H257.047V130.808H262.016V134.433H257.047V138.183H261.438V141.777H257.047V145.605H262.484V149.262H257.047V155.762H253.312ZM234.266 155.387C234.12 154.22 233.891 152.897 233.578 151.418C234.016 151.459 234.573 151.48 235.25 151.48C235.677 151.48 235.99 151.376 236.188 151.168C236.385 150.959 236.484 150.616 236.484 150.137V144.433C235.974 144.569 235.271 144.772 234.375 145.043C234.083 145.126 233.87 145.189 233.734 145.23L233.391 140.996L236.484 140.246V135.277H233.984V131.465H236.484V125.918H240.094V131.465H242.047V135.277H240.094V139.308L242.25 138.746C242.25 140.642 242.271 141.975 242.312 142.746C241.823 142.871 241.083 143.079 240.094 143.371V151.355C240.094 152.626 239.854 153.569 239.375 154.183C238.896 154.808 238.115 155.168 237.031 155.262C236.594 155.303 235.906 155.334 234.969 155.355C234.656 155.366 234.422 155.376 234.266 155.387ZM269.312 155.762V145.574C268.479 147.449 267.583 149.074 266.625 150.449C266.094 148.616 265.651 147.209 265.297 146.23C266.964 143.834 268.292 141.204 269.281 138.34H265.734V134.558H269.312V130.996C267.979 131.079 266.943 131.131 266.203 131.152C266.172 130.923 266.135 130.605 266.094 130.199C265.979 129.001 265.88 128.126 265.797 127.574C269.547 127.418 272.88 127.189 275.797 126.887L276.359 130.465C275.568 130.558 274.422 130.663 272.922 130.777V134.558H276.141V138.34H272.922V140.683C273.505 141.069 274.339 141.657 275.422 142.449C276.13 142.959 276.656 143.34 277 143.59L275.281 146.824L272.922 144.668V155.762H269.312ZM275.406 154.637V151.355H283.219V148.512H277.094V145.293H283.219V142.527H276.703V139.246H293.766V142.527H287.078V145.293H293.156V148.512H287.078V151.355H294.516V154.637H275.406ZM277.5 137.09V127.324H292.875V137.09H277.5ZM281.234 133.871H289.109V130.59H281.234V133.871ZM306.281 155.48C306.125 154.449 305.839 153.157 305.422 151.605C306.661 151.668 307.734 151.699 308.641 151.699C309.286 151.699 309.74 151.553 310 151.262C310.26 150.959 310.391 150.449 310.391 149.73V145.637C307.464 145.782 305.089 145.907 303.266 146.012C302.339 146.074 301.37 146.199 300.359 146.387L299.219 142.558C300.552 142.308 301.776 141.913 302.891 141.371C304.766 140.465 306.844 139.402 309.125 138.183L304.156 138.465C303.25 138.517 302.302 138.61 301.312 138.746L300.234 135.246C301.443 134.965 302.359 134.631 302.984 134.246C304.349 133.454 305.849 132.506 307.484 131.402C307.359 131.413 307.161 131.423 306.891 131.433C303.547 131.548 301.083 131.621 299.5 131.652C299.458 131.454 299.391 131.147 299.297 130.73C299.047 129.522 298.844 128.605 298.688 127.98C310.229 127.72 318.812 127.355 324.438 126.887L325.312 130.465C321.927 130.715 318.219 130.933 314.188 131.121C311.125 132.996 308.823 134.35 307.281 135.183C307.667 135.173 308.281 135.157 309.125 135.137C311.604 135.074 313.49 135.017 314.781 134.965C317.292 133.465 319.125 132.329 320.281 131.558L323.266 134.34C317.661 137.444 312.354 140.163 307.344 142.496C308.865 142.454 311.375 142.371 314.875 142.246C316.51 142.183 317.724 142.142 318.516 142.121C318.443 142.038 318.339 141.918 318.203 141.762C317.38 140.824 316.786 140.152 316.422 139.746L319.188 137.996C321.635 140.433 323.922 142.824 326.047 145.168L323.172 147.449L321.266 145.23L314.531 145.48V150.668C314.531 152.303 314.234 153.459 313.641 154.137C313.036 154.834 311.932 155.241 310.328 155.355C309.318 155.439 307.969 155.48 306.281 155.48ZM299.625 154.98C299.219 154.355 298.505 153.324 297.484 151.887C297.422 151.793 297.37 151.72 297.328 151.668C299.839 150.178 302.401 148.345 305.016 146.168L307.578 148.949C304.37 151.522 301.719 153.532 299.625 154.98ZM323.828 154.824C321.734 153.157 319.161 151.251 316.109 149.105L318.609 146.262C321.922 148.48 324.505 150.251 326.359 151.574L323.828 154.824ZM340.484 155.918C339.599 154.73 338.724 153.647 337.859 152.668C334.661 153.095 332.036 153.512 329.984 153.918L329.359 149.918C330.099 149.824 331.464 149.652 333.453 149.402C336.505 149.027 338.62 148.762 339.797 148.605C339.766 149.168 339.729 149.959 339.688 150.98C339.688 151.168 339.682 151.303 339.672 151.387C340.818 150.491 341.635 149.558 342.125 148.59C342.594 147.683 342.891 146.512 343.016 145.074L343.109 142.34C342.078 142.454 341.245 142.59 340.609 142.746L339.219 139.121C340.135 138.444 340.948 137.642 341.656 136.715C342.708 135.444 343.625 134.142 344.406 132.808H339.484V129.355H346.719L345.797 126.23L350.109 125.824L351.047 129.355H358.047V132.808H349.219C347.479 135.038 345.865 137.017 344.375 138.746L351.906 138.496L349.688 135.496L352.516 133.746C354.818 136.558 356.786 139.09 358.422 141.34L355.328 143.433L354.125 141.683C353.802 141.683 353.349 141.704 352.766 141.746V150.355C352.766 150.793 352.823 151.09 352.938 151.246C353.052 151.402 353.266 151.48 353.578 151.48H353.906C354.302 151.48 354.578 151.402 354.734 151.246C354.891 151.09 355.005 150.772 355.078 150.293C355.224 149.355 355.359 148.095 355.484 146.512C355.766 146.626 356.141 146.777 356.609 146.965C357.443 147.298 358.089 147.543 358.547 147.699C358.411 149.282 358.224 150.751 357.984 152.105C357.797 153.105 357.406 153.834 356.812 154.293C356.188 154.772 355.26 155.012 354.031 155.012H352.609C351.318 155.012 350.396 154.72 349.844 154.137C349.302 153.564 349.031 152.605 349.031 151.262V141.965C348.562 142.006 347.859 142.043 346.922 142.074C346.891 142.084 346.865 142.09 346.844 142.09C346.844 142.131 346.839 142.199 346.828 142.293C346.797 143.501 346.76 144.355 346.719 144.855C346.604 146.532 346.354 147.944 345.969 149.09C345.562 150.34 344.927 151.496 344.062 152.558C343.208 153.621 342.016 154.741 340.484 155.918ZM330.938 147.355L329.953 143.933C330.703 143.381 331.547 142.423 332.484 141.058C332.87 140.527 333.427 139.683 334.156 138.527C332.646 138.621 331.37 138.746 330.328 138.902L329.359 135.433C330.016 134.881 330.677 133.902 331.344 132.496C332.427 130.569 333.443 128.324 334.391 125.762L338.438 127.043C336.823 129.876 335.208 132.569 333.594 135.121C333.719 135.121 333.943 135.11 334.266 135.09C335.078 135.058 335.688 135.027 336.094 134.996C336.479 134.308 336.911 133.475 337.391 132.496L340.703 134.09C338.432 137.777 336.464 140.871 334.797 143.371L339.406 142.965C339.281 144.194 339.208 145.334 339.188 146.387C335.26 146.72 332.51 147.043 330.938 147.355Z" fill="#0053B5"/>
<rect y="137" width="52" height="3" rx="1.5" fill="#D9E9F8"/>
<rect x="380" y="137" width="52" height="3" rx="1.5" fill="#D9E9F8"/>
</svg>
